<svg xmlns="http://www.w3.org/2000/svg" viewBox="0 0 1024 1024" width="1024" height="1024" role="img" aria-labelledby="minthra-logo-title">
  <title id="minthra-logo-title">Minthra</title>
  <path fill="currentColor" d="M 56.00 725.89 C56.00,725.29 59.04,720.62 62.75,715.53 C66.46,710.44 74.68,699.16 81.00,690.47 C87.32,681.78 93.86,672.83 95.52,670.58 C97.18,668.34 103.22,659.97 108.95,652.00 C114.67,644.03 129.32,623.78 141.50,607.00 C153.67,590.22 173.08,563.45 184.61,547.50 C196.15,531.55 208.50,514.51 212.05,509.63 C228.67,486.79 253.45,452.62 266.79,434.12 C274.88,422.91 284.01,410.31 287.07,406.12 C290.13,401.93 302.92,384.33 315.49,367.00 C328.06,349.67 341.95,330.55 346.35,324.50 C350.76,318.45 360.05,305.62 366.99,296.00 C391.42,262.12 402.23,247.49 403.36,246.77 C404.99,245.71 554.00,245.82 554.00,246.87 C554.00,247.35 549.59,253.99 544.19,261.62 C538.80,269.25 521.85,293.27 506.52,315.00 C491.20,336.73 473.41,361.92 466.98,371.00 C440.43,408.50 432.69,419.47 418.99,439.00 C411.07,450.27 397.11,470.08 387.95,483.00 C378.79,495.92 364.52,516.17 356.23,528.00 C347.95,539.83 339.40,551.97 337.24,555.00 C331.07,563.66 295.54,613.90 283.49,631.00 C277.49,639.53 266.66,654.83 259.43,665.00 C252.20,675.17 241.04,690.92 234.63,700.00 C228.22,709.08 221.18,718.86 218.99,721.75 L 215.01 727.00 L 135.51 727.00 C78.09,727.00 56.00,726.69 56.00,725.89 ZM 826.64 658.87 C821.75,658.34 820.22,657.68 817.42,654.87 C815.21,652.64 808.10,639.49 796.41,616.00 C768.53,559.96 746.04,513.80 744.67,509.78 C744.32,508.75 745.02,506.93 746.41,505.28 C747.69,503.75 767.08,477.98 789.49,448.00 C811.91,418.02 831.32,392.15 832.63,390.50 C833.94,388.85 837.37,384.25 840.26,380.27 C843.14,376.30 846.01,373.04 846.64,373.02 C847.26,373.01 848.94,375.81 850.36,379.25 C851.78,382.69 854.70,389.77 856.86,395.00 C860.83,404.62 871.99,430.84 874.60,436.68 C875.39,438.43 877.30,442.93 878.85,446.68 C881.79,453.81 897.92,491.69 913.25,527.50 C918.20,539.05 924.38,553.67 926.99,560.00 C930.87,569.43 957.81,632.42 960.98,639.50 C961.47,640.60 963.27,644.61 964.98,648.40 C966.68,652.20 968.17,656.25 968.29,657.40 L 968.50 659.50 L 900.50 659.50 C863.10,659.50 829.86,659.22 826.64,658.87 ZM 457.00 655.42 C457.00,655.10 458.48,652.96 460.30,650.67 C462.11,648.38 466.08,643.35 469.11,639.50 C474.41,632.76 491.72,610.98 533.04,559.04 C543.74,545.59 565.50,518.36 581.39,498.54 C597.28,478.72 617.76,453.12 626.89,441.65 C683.51,370.54 712.94,334.29 716.00,331.86 C723.14,326.20 725.66,326.00 791.33,326.00 C847.89,326.00 851.21,326.10 850.78,327.75 C850.52,328.71 840.68,342.35 828.91,358.05 C817.13,373.76 783.88,418.23 755.00,456.89 C618.71,639.36 608.87,652.43 606.02,654.72 C604.86,655.65 587.19,655.94 530.75,655.97 C490.19,655.99 457.00,655.74 457.00,655.42 ZM 520.72 504.79 C500.08,463.08 473.00,406.79 473.00,405.60 C473.00,404.90 477.61,397.80 483.25,389.81 C488.89,381.82 496.58,370.83 500.35,365.39 C504.11,359.95 512.21,348.26 518.35,339.42 C524.48,330.57 536.70,312.92 545.50,300.20 C554.75,286.82 562.09,277.16 562.89,277.28 C564.30,277.50 618.35,375.86 622.63,386.00 C625.63,393.10 625.66,400.05 622.71,406.00 C620.75,409.96 606.99,427.95 574.15,469.50 C561.71,485.23 558.33,489.54 543.94,508.00 C537.30,516.53 531.50,523.63 531.06,523.79 C530.63,523.95 525.97,515.40 520.72,504.79 Z"/>
</svg>
